HIERARCHY
ROOT root
{
	OFFSET 0.000000 0.000000 0.000000
	CHANNELS 6 Xposition Yposition Zposition Zrotation Yrotation Xrotation
	JOINT lhip
	{
		OFFSET 0.058581 -0.082280 -0.017664
		CHANNELS 3 Zrotation Yrotation Xrotation
		JOINT lknee
		{
			OFFSET 0.043451 -0.386469 0.008037
			CHANNELS 3 Zrotation Yrotation Xrotation
			JOINT lankle
			{
				OFFSET -0.014790 -0.426874 -0.037428
				CHANNELS 3 Zrotation Yrotation Xrotation
				JOINT ltoe
				{
					OFFSET 0.041054 -0.060286 0.122042
					CHANNELS 3 Zrotation Yrotation Xrotation
					End Site
					{
						OFFSET 0.000000 0.000000 0.000000
					}
				}
			}
		}
	}
	JOINT rhip
	{
		OFFSET -0.060310 -0.090513 -0.013543
		CHANNELS 3 Zrotation Yrotation Xrotation
		JOINT rknee
		{
			OFFSET -0.043257 -0.383688 -0.004843
			CHANNELS 3 Zrotation Yrotation Xrotation
			JOINT rankle
			{
				OFFSET 0.019056 -0.420046 -0.034562
				CHANNELS 3 Zrotation Yrotation Xrotation
				JOINT rtoe
				{
					OFFSET -0.034840 -0.062106 0.130323
					CHANNELS 3 Zrotation Yrotation Xrotation
					End Site
					{
						OFFSET 0.000000 0.000000 0.000000
					}
				}
			}
		}
	}
	JOINT lowerback
	{
		OFFSET 0.004439 0.124404 -0.038385
		CHANNELS 3 Zrotation Yrotation Xrotation
		JOINT upperback
		{
			OFFSET 0.004488 0.137956 0.026820
			CHANNELS 3 Zrotation Yrotation Xrotation
			JOINT chest
			{
				OFFSET -0.002265 0.056032 0.002855
				CHANNELS 3 Zrotation Yrotation Xrotation
				JOINT lowerneck
				{
					OFFSET -0.013390 0.211636 -0.033468
					CHANNELS 3 Zrotation Yrotation Xrotation
					JOINT upperneck
					{
						OFFSET 0.010113 0.088937 0.050410
						CHANNELS 3 Zrotation Yrotation Xrotation
						End Site
						{
							OFFSET 0.000000 0.000000 0.000000
						}
					}
				}
				JOINT lclavicle
				{
					OFFSET 0.071702 0.114000 -0.018898
					CHANNELS 3 Zrotation Yrotation Xrotation
					JOINT lshoulder
					{
						OFFSET 0.122921 0.045205 -0.019046
						CHANNELS 3 Zrotation Yrotation Xrotation
						JOINT lelbow
						{
							OFFSET 0.255332 -0.015649 -0.022946
							CHANNELS 3 Zrotation Yrotation Xrotation
							JOINT lwrist
							{
								OFFSET 0.265709 0.012698 -0.007375
								CHANNELS 3 Zrotation Yrotation Xrotation
								End Site
								{
									OFFSET 0.000000 0.000000 0.000000
								}
							}
						}
					}
				}
				JOINT rclavicle
				{
					OFFSET -0.082954 0.112472 -0.023707
					CHANNELS 3 Zrotation Yrotation Xrotation
					JOINT rshoulder
					{
						OFFSET -0.113228 0.046853 -0.008472
						CHANNELS 3 Zrotation Yrotation Xrotation
						JOINT relbow
						{
							OFFSET -0.260127 -0.014369 -0.031269
							CHANNELS 3 Zrotation Yrotation Xrotation
							JOINT rwrist
							{
								OFFSET -0.269108 0.006794 -0.006027
								CHANNELS 3 Zrotation Yrotation Xrotation
								End Site
								{
									OFFSET 0.000000 0.000000 0.000000
								}
							}
						}
					}
				}
			}
		}
	}
}
MOTION
Frames: 11
Frame Time: 0.033333
-0.350091 1.020371 0.953911 -1.571988 0.996085 101.124076 4.355252 -5.129403 -42.970371 -2.981321 7.200978 6.823537 0.730889 12.804209 -19.188857 0.000000 -0.000000 0.000000 7.477977 3.651428 -20.223816 -1.147633 -4.865572 38.212263 0.880845 -11.821925 -31.764362 0.000000 -0.000000 0.000000 -0.063821 2.946627 35.978515 0.563231 -1.512239 -8.137864 1.530273 -1.058861 4.967066 2.287409 6.033112 -5.099145 2.793418 -2.773541 6.343298 -30.732993 -1.094266 2.250362 -53.932154 -2.095085 11.807736 8.694015 -30.079597 -2.323005 2.944920 -5.782719 -13.105599 26.606814 5.138460 1.601749 54.212994 2.038990 15.133220 -9.978436 26.022847 -2.034861 2.778463 5.988525 -11.254907 
-0.346872 0.982273 0.948678 -2.573246 1.141823 101.158967 4.290515 -6.088274 -41.358252 -2.947016 4.520577 7.137502 0.332332 12.205992 -18.251755 0.000000 -0.000000 0.000000 7.416879 3.326055 -17.286779 -1.024014 -4.232392 37.868764 1.170128 -11.638922 -32.999429 0.000000 -0.000000 0.000000 -0.216364 3.386206 35.203597 0.467259 -1.615228 -7.755790 1.483650 -0.947435 5.030325 2.412279 6.401438 -4.997194 2.765149 -2.716952 6.334495 -30.568362 -1.078061 2.028760 -54.090916 -2.029461 11.872524 8.838709 -29.990178 -2.300259 3.151556 -5.688925 -13.373285 26.451139 5.120473 1.466488 54.434758 1.546781 15.105704 -10.067988 26.146176 -1.661980 2.761829 5.951932 -11.298431 
-0.343225 0.944893 0.945148 -3.114006 0.818358 102.062578 3.693690 -6.703092 -41.121272 -2.874564 4.292929 8.660337 1.183830 12.458851 -14.046056 0.000000 -0.000000 0.000000 6.549175 2.954397 -15.461174 -0.776019 -3.437461 37.670114 1.521224 -11.005183 -33.064246 0.000000 -0.000000 0.000000 -0.757922 3.792964 34.262587 0.568429 -1.959111 -7.789541 1.459378 -0.965119 5.079985 2.294531 6.435007 -5.242269 2.877352 -2.344293 6.378274 -30.465489 -1.018319 1.959261 -54.025948 -2.221874 12.029116 8.901675 -29.975928 -2.416897 3.716178 -5.488026 -13.798405 26.385527 4.909919 1.311493 54.565092 1.414123 15.320577 -10.166607 26.148791 -1.601549 2.621729 5.813782 -11.109309 
-0.339266 0.909993 0.947717 -2.589511 -0.293179 103.263985 3.366015 -7.578373 -42.138425 -3.423911 6.768824 11.762991 1.892141 13.624490 -10.795871 0.000000 -0.000000 0.000000 4.667686 2.595770 -14.765579 -0.453631 -2.929018 38.518123 2.752744 -9.442905 -30.840061 0.000000 -0.000000 0.000000 -1.240994 4.236157 34.580544 0.702982 -2.743059 -8.092111 1.365219 -1.162442 4.612533 2.025555 5.996301 -5.828299 3.384117 -2.135703 5.864081 -30.512082 -1.814114 2.080261 -53.505001 -2.682718 12.187602 9.126057 -30.054608 -3.122862 4.139055 -5.558410 -13.635680 26.597641 5.079975 1.296362 54.627106 1.381285 15.446454 -10.640116 26.089163 -2.671475 2.403626 5.575895 -10.930958 
-0.335353 0.875519 0.953471 -1.652402 -0.800513 104.481286 2.983058 -7.471335 -41.919227 -4.467039 8.148389 12.943584 2.116274 13.086377 -8.721764 0.000000 -0.000000 0.000000 2.958133 2.134310 -15.235153 0.293388 -3.315439 40.922190 4.237947 -7.030438 -26.485620 0.000000 -0.000000 0.000000 -0.990160 4.098353 34.668078 0.729212 -2.886659 -7.687850 1.198401 -1.130024 3.878758 1.830357 5.258518 -6.000755 3.787502 -2.146406 5.371158 -30.789328 -2.759452 2.189601 -53.112765 -3.242912 12.366523 9.860962 -30.632861 -4.270487 4.346453 -5.726871 -13.075800 27.080957 5.842385 1.834001 54.128284 1.454091 15.363239 -11.021245 26.034549 -4.032177 2.593162 5.558418 -10.499550 
-0.331227 0.841425 0.958594 -0.817818 -0.507527 105.908155 2.262308 -6.959643 -41.469854 -5.064036 6.904020 13.304637 4.302784 12.098552 -7.038484 0.000000 -0.000000 0.000000 1.825589 1.736486 -17.455941 1.232183 -3.596680 45.415357 5.038378 -4.990444 -21.094578 0.000000 -0.000000 0.000000 -0.589447 3.274431 33.695438 0.975637 -2.433214 -7.473095 1.120803 -1.022574 3.920649 1.647571 4.520212 -5.692398 3.561743 -1.540519 5.675610 -30.920622 -2.569362 2.075326 -53.357278 -3.778899 12.646391 10.201345 -31.489387 -4.981718 5.111870 -5.714992 -13.551199 27.206357 5.910083 1.909562 53.355040 2.085089 15.506431 -10.711014 26.144423 -4.119828 3.217298 5.675623 -9.277760 
-0.327604 0.808235 0.963505 -0.358754 -0.463456 106.924806 1.766437 -7.480943 -40.998706 -4.977629 6.044209 14.480024 6.882563 11.955980 -6.394201 0.000000 -0.000000 0.000000 0.684883 1.712572 -20.742015 1.998252 -2.989942 51.633732 4.939359 -4.476766 -16.412503 0.000000 -0.000000 0.000000 -0.578305 2.811770 33.195619 1.293310 -1.978182 -7.477347 1.029646 -1.200842 4.111678 1.674514 4.063982 -5.436332 3.217284 -1.013692 5.761681 -30.919633 -2.054758 2.131139 -53.270370 -4.039045 12.928054 9.849771 -32.506911 -4.628647 5.116998 -5.789810 -14.201380 27.436507 5.308654 1.628566 52.920042 2.776767 15.724408 -10.971986 26.683791 -4.928381 3.759664 5.616205 -8.779435 
-0.325476 0.775176 0.969141 -0.165655 -0.993293 106.961798 1.109306 -8.391547 -39.430355 -5.082805 5.517474 15.551722 8.285202 12.484563 -6.996550 0.000000 -0.000000 0.000000 -0.829291 2.160190 -23.993461 2.335907 -2.813007 58.249596 4.542622 -5.482219 -15.502609 0.000000 -0.000000 0.000000 -1.178635 2.845688 33.888417 1.493896 -1.704635 -7.391968 0.959851 -1.412747 4.164772 2.102464 4.065547 -5.441476 2.970586 -1.287978 5.475811 -30.823632 -2.087502 2.359691 -52.710701 -4.086367 13.135770 9.417203 -33.201854 -3.986089 4.884563 -5.728656 -14.377044 28.057939 5.486559 1.600311 52.841449 3.036944 15.985031 -11.779938 26.802661 -6.975351 3.163161 5.517519 -9.221218 
-0.323767 0.742206 0.974233 0.033854 -1.133376 106.687732 0.222892 -8.353967 -37.302452 -5.243149 4.342574 16.331391 8.984406 13.210588 -8.610515 0.000000 -0.000000 0.000000 -2.000188 2.971829 -27.738704 1.822987 -3.679998 64.183279 3.858466 -6.754291 -16.380325 0.000000 -0.000000 0.000000 -1.436812 2.294273 34.672694 1.467001 -1.189409 -7.466599 0.869145 -1.466114 4.344937 2.267529 4.095099 -5.234660 2.643603 -1.443431 5.359506 -30.659053 -2.179326 2.544982 -52.442857 -3.999024 13.067186 9.138790 -33.077075 -3.722781 4.947223 -5.427462 -14.569475 28.420427 5.935710 1.622512 52.831861 3.179943 16.221741 -11.994638 26.799905 -7.484633 3.144176 5.373374 -9.276743 
-0.321851 0.710311 0.978562 0.705593 -0.887100 106.641585 -0.809962 -7.543700 -35.157580 -5.209623 2.627761 16.606626 9.364751 13.501698 -10.106018 0.000000 -0.000000 0.000000 -2.804735 3.552123 -32.555717 0.936138 -4.876620 68.579707 3.620599 -8.217896 -18.580920 0.000000 -0.000000 0.000000 -1.078457 0.849462 35.083899 1.350039 -0.604969 -7.762983 0.661073 -1.565481 4.640987 2.206005 4.153297 -4.959795 2.120307 -1.323927 5.329493 -30.581618 -1.925037 2.714958 -52.345481 -3.939767 12.766760 8.937592 -32.635781 -3.674819 5.067750 -5.205131 -14.559702 28.553722 6.057953 1.558993 52.733386 3.533689 16.425244 -11.537247 26.960588 -6.623266 3.831200 5.308278 -8.570310 
-0.320348 0.678195 0.982484 1.689592 -0.715406 106.322062 -1.803575 -6.598757 -32.582969 -5.274037 0.788864 16.630701 9.454254 13.541890 -11.496697 0.000000 -0.000000 0.000000 -3.512357 3.596248 -37.429934 0.414496 -5.678480 70.792214 3.620768 -8.890164 -20.263719 0.000000 -0.000000 0.000000 -0.554599 -0.687936 35.614329 1.256651 -0.263478 -7.945751 0.436825 -1.799322 4.811126 2.215942 4.231996 -4.717890 1.689297 -1.307685 5.200755 -30.536523 -1.693110 2.882447 -52.208768 -3.920408 12.468947 8.675247 -32.138802 -3.610656 5.253410 -5.175227 -14.352547 28.728883 6.088032 1.556446 52.722200 3.852559 16.425914 -11.205642 27.086744 -6.466373 4.166181 5.283550 -8.285083 
